<svg xmlns="http://www.w3.org/2000/svg" viewBox="0 0 1200 620" role="img" aria-labelledby="title desc">
  <title id="title">Brian V. Roache red and gold hero image</title>
  <desc id="desc">A split red and gold name graphic reading Brian V. Roache, with a flying white dove above a multimedia web player.</desc>
  <defs>
    <linearGradient id="redPanel" x1="0" y1="0" x2="1" y2="1">
      <stop offset="0" stop-color="#b31f2a"/>
      <stop offset="1" stop-color="#6f1018"/>
    </linearGradient>
    <linearGradient id="goldPanel" x1="0" y1="0" x2="1" y2="1">
      <stop offset="0" stop-color="#ffd35a"/>
      <stop offset="1" stop-color="#b77a00"/>
    </linearGradient>
    <linearGradient id="playerFace" x1="0" y1="0" x2="1" y2="1">
      <stop offset="0" stop-color="#ffffff"/>
      <stop offset="1" stop-color="#dce9ef"/>
    </linearGradient>
    <filter id="softShadow" x="-20%" y="-20%" width="140%" height="140%">
      <feDropShadow dx="0" dy="12" stdDeviation="12" flood-color="#000000" flood-opacity="0.26"/>
    </filter>
  </defs>

  <rect width="1200" height="620" fill="#151515"/>
  <rect x="28" y="28" width="572" height="564" rx="38" fill="url(#redPanel)"/>
  <rect x="600" y="28" width="572" height="564" rx="38" fill="url(#goldPanel)"/>
  <rect x="582" y="28" width="36" height="564" fill="#151515"/>

  <g opacity="0.18" fill="none" stroke="#ffffff" stroke-width="3">
    <path d="M84 126 C190 82, 304 90, 414 138"/>
    <path d="M768 488 C874 532, 988 530, 1096 478"/>
    <path d="M86 470 C204 398, 338 402, 500 494"/>
    <path d="M712 132 C844 72, 982 92, 1110 156"/>
  </g>

  <text x="298" y="326" text-anchor="middle" fill="#ffffff" font-family="Montserrat, Arial, sans-serif" font-size="96" font-weight="800">Brian V.</text>
  <text x="902" y="326" text-anchor="middle" fill="#171717" font-family="Montserrat, Arial, sans-serif" font-size="104" font-weight="800">Roache</text>

  <g filter="url(#softShadow)">
    <ellipse cx="600" cy="308" rx="150" ry="118" fill="#ffffff" opacity="0.98"/>
    <path d="M550 288 C462 210, 352 194, 276 272 C400 256, 478 292, 550 352 Z" fill="#f5f8fb"/>
    <path d="M650 288 C738 210, 848 194, 924 272 C800 256, 722 292, 650 352 Z" fill="#f5f8fb"/>
    <path d="M470 272 C382 206, 290 194, 212 238 C330 256, 418 320, 480 386 Z" fill="#ffffff"/>
    <path d="M730 272 C818 206, 910 194, 988 238 C870 256, 782 320, 720 386 Z" fill="#ffffff"/>
    <path d="M510 254 C558 194, 642 194, 690 254 C660 232, 540 232, 510 254 Z" fill="#eef3f7"/>
    <circle cx="600" cy="246" r="50" fill="#ffffff"/>
    <path d="M632 244 L710 224 L646 272 Z" fill="#f0b321"/>
    <circle cx="618" cy="234" r="7" fill="#151515"/>
    <path d="M562 344 C584 372, 616 372, 638 344" fill="none" stroke="#d6dde4" stroke-width="11" stroke-linecap="round"/>
  </g>

  <g transform="translate(392 378)" filter="url(#softShadow)">
    <rect x="0" y="0" width="416" height="122" rx="26" fill="url(#playerFace)" stroke="#151515" stroke-width="8"/>
    <circle cx="68" cy="61" r="34" fill="#b31f2a"/>
    <path d="M58 42 L88 61 L58 80 Z" fill="#ffffff"/>
    <rect x="130" y="34" width="198" height="12" rx="6" fill="#151515"/>
    <rect x="130" y="62" width="238" height="10" rx="5" fill="#95adba"/>
    <rect x="130" y="62" width="116" height="10" rx="5" fill="#b31f2a"/>
    <g stroke="#b77a00" stroke-width="7" stroke-linecap="round">
      <path d="M130 90 V78"/>
      <path d="M150 90 V66"/>
      <path d="M170 90 V74"/>
      <path d="M190 90 V56"/>
      <path d="M210 90 V70"/>
      <path d="M230 90 V62"/>
      <path d="M250 90 V76"/>
      <path d="M270 90 V64"/>
      <path d="M290 90 V82"/>
      <path d="M310 90 V72"/>
      <path d="M330 90 V80"/>
      <path d="M350 90 V68"/>
    </g>
  </g>

  <path d="M332 402 C454 464, 744 464, 868 402" fill="none" stroke="#ffffff" stroke-width="6" opacity="0.38" stroke-linecap="round"/>
  <path d="M332 412 C454 474, 744 474, 868 412" fill="none" stroke="#151515" stroke-width="4" opacity="0.28" stroke-linecap="round"/>
</svg>
